<?xml version="1.0" standalone="no"?>
<!DOCTYPE svg PUBLIC "-//W3C//DTD SVG 20010904//EN"
 "http://www.w3.org/TR/2001/REC-SVG-20010904/DTD/svg10.dtd">
<svg version="1.0" xmlns="http://www.w3.org/2000/svg"
 width="941.000000pt" height="1280.000000pt" viewBox="0 0 941.000000 1280.000000"
 preserveAspectRatio="xMidYMid meet">
<metadata>
Created by potrace 1.15, written by Peter Selinger 2001-2017
</metadata>
<g transform="translate(0.000000,1280.000000) scale(0.100000,-0.100000)"
fill="#ff9800" stroke="none">
<path d="M5020 12793 c-45 -14 -64 -68 -280 -784 -120 -396 -219 -722 -222
-724 -2 -3 -413 119 -914 269 -500 151 -910 273 -910 273 -11 -12 -433 -1442
-427 -1447 4 -5 109 -38 233 -75 425 -127 503 -165 551 -270 33 -71 18 -191
-51 -432 -106 -363 -1491 -4948 -1536 -5084 -72 -215 -114 -294 -179 -334 -88
-54 -181 -41 -608 87 -130 39 -239 69 -240 67 -2 -2 -99 -323 -217 -714 -117
-390 -215 -715 -217 -720 -2 -6 383 -127 907 -285 565 -169 910 -278 910 -286
0 -6 -95 -325 -210 -708 -151 -500 -210 -710 -210 -745 0 -85 6 -88 542 -249
507 -153 516 -155 571 -104 32 30 20 -5 277 847 99 330 182 605 184 611 3 8
96 -16 273 -69 147 -44 269 -81 270 -81 1 -1 -96 -328 -216 -727 -207 -685
-218 -725 -204 -750 41 -70 26 -64 529 -215 263 -79 489 -144 501 -144 12 0
41 8 65 19 l43 19 220 732 220 732 30 -6 c16 -3 107 -21 200 -40 374 -76 605
-101 935 -101 192 1 283 5 370 18 698 108 1257 421 1676 940 383 475 600 1119
581 1722 -7 207 -25 336 -73 523 -123 480 -368 839 -808 1182 l-68 54 93 19
c143 29 380 110 514 177 232 114 411 244 606 439 492 492 743 1206 664 1885
-32 269 -95 489 -210 721 -295 601 -802 1007 -1646 1320 -85 31 -155 58 -156
59 -1 1 98 335 221 741 l223 740 -23 47 c-13 26 -28 49 -33 52 -5 4 -231 73
-503 155 l-493 149 -49 -27 -49 -27 -221 -734 c-122 -403 -226 -735 -233 -737
-9 -3 -541 152 -549 160 -2 1 95 327 215 723 188 624 217 726 212 766 -10 81
-16 84 -534 239 -421 126 -502 146 -547 132z m641 -3657 c924 -278 1183 -395
1355 -610 129 -161 184 -376 155 -601 -61 -461 -306 -772 -686 -872 -84 -22
-123 -26 -245 -27 -279 -2 -485 43 -1230 268 -238 72 -345 108 -344 117 1 8
126 429 279 936 171 567 282 920 289 918 6 -2 198 -60 427 -129z m-928 -3422
c536 -162 690 -215 885 -309 178 -86 288 -160 386 -258 219 -220 300 -488 250
-825 -31 -211 -122 -450 -234 -618 -66 -98 -201 -233 -301 -301 -284 -194
-517 -225 -979 -133 -159 32 -242 55 -706 196 -373 113 -444 140 -462 177 -25
52 5 164 362 1352 141 468 259 856 261 864 6 17 -34 28 538 -145z"/>
</g>
</svg>
